<mxfile host="Electron" agent="Mozilla/5.0 (Windows NT 10.0; Win64; x64) AppleWebKit/537.36 (KHTML, like Gecko) draw.io/28.1.2 Chrome/138.0.7204.243 Electron/37.4.0 Safari/537.36" version="28.1.2">
  <diagram name="Page-1" id="9mcJB3wBLEoSoJilxPcq">
    <mxGraphModel dx="540" dy="925" grid="1" gridSize="10" guides="1" tooltips="1" connect="1" arrows="1" fold="1" page="1" pageScale="1" pageWidth="850" pageHeight="1100" math="0" shadow="0">
      <root>
        <mxCell id="0" />
        <mxCell id="1" parent="0" />
        <mxCell id="wWXcaKB92qRnpz49XqFc-1" value="Start" style="rounded=0;whiteSpace=wrap;html=1;" vertex="1" parent="1">
          <mxGeometry x="450" y="130" width="90" height="40" as="geometry" />
        </mxCell>
        <mxCell id="wWXcaKB92qRnpz49XqFc-2" value="" style="endArrow=classic;html=1;rounded=0;" edge="1" parent="1">
          <mxGeometry width="50" height="50" relative="1" as="geometry">
            <mxPoint x="494.41" y="170" as="sourcePoint" />
            <mxPoint x="494.41" y="220" as="targetPoint" />
          </mxGeometry>
        </mxCell>
        <mxCell id="wWXcaKB92qRnpz49XqFc-3" value="Yêu cầu crawl" style="rounded=0;whiteSpace=wrap;html=1;" vertex="1" parent="1">
          <mxGeometry x="450" y="220" width="90" height="40" as="geometry" />
        </mxCell>
        <mxCell id="wWXcaKB92qRnpz49XqFc-4" value="Crawl dữ liệu từ Sources" style="rounded=0;whiteSpace=wrap;html=1;" vertex="1" parent="1">
          <mxGeometry x="450" y="310" width="90" height="40" as="geometry" />
        </mxCell>
        <mxCell id="wWXcaKB92qRnpz49XqFc-5" value="" style="endArrow=classic;html=1;rounded=0;" edge="1" parent="1">
          <mxGeometry width="50" height="50" relative="1" as="geometry">
            <mxPoint x="494.41" y="260" as="sourcePoint" />
            <mxPoint x="494.41" y="310" as="targetPoint" />
          </mxGeometry>
        </mxCell>
        <mxCell id="wWXcaKB92qRnpz49XqFc-6" value="Dữ liệu có&amp;nbsp;&lt;div&gt;hợp lệ không?&lt;/div&gt;" style="rhombus;whiteSpace=wrap;html=1;" vertex="1" parent="1">
          <mxGeometry x="425" y="400" width="140" height="70" as="geometry" />
        </mxCell>
        <mxCell id="wWXcaKB92qRnpz49XqFc-8" value="" style="endArrow=classic;html=1;rounded=0;exitX=0.5;exitY=1;exitDx=0;exitDy=0;entryX=0.5;entryY=0;entryDx=0;entryDy=0;" edge="1" parent="1" source="wWXcaKB92qRnpz49XqFc-4" target="wWXcaKB92qRnpz49XqFc-6">
          <mxGeometry width="50" height="50" relative="1" as="geometry">
            <mxPoint x="490" y="350" as="sourcePoint" />
            <mxPoint x="495" y="390" as="targetPoint" />
          </mxGeometry>
        </mxCell>
        <mxCell id="wWXcaKB92qRnpz49XqFc-9" value="End" style="rounded=1;whiteSpace=wrap;html=1;" vertex="1" parent="1">
          <mxGeometry x="620" y="417.5" width="60" height="35" as="geometry" />
        </mxCell>
        <mxCell id="wWXcaKB92qRnpz49XqFc-10" value="" style="endArrow=classic;html=1;rounded=0;entryX=0;entryY=0.5;entryDx=0;entryDy=0;" edge="1" parent="1" target="wWXcaKB92qRnpz49XqFc-9">
          <mxGeometry width="50" height="50" relative="1" as="geometry">
            <mxPoint x="565" y="434.40999999999997" as="sourcePoint" />
            <mxPoint x="595" y="434.40999999999997" as="targetPoint" />
          </mxGeometry>
        </mxCell>
        <mxCell id="wWXcaKB92qRnpz49XqFc-11" value="No&lt;div&gt;&lt;br&gt;&lt;/div&gt;" style="text;html=1;align=center;verticalAlign=middle;resizable=0;points=[];autosize=1;strokeColor=none;fillColor=none;" vertex="1" parent="1">
          <mxGeometry x="565" y="412.5" width="40" height="40" as="geometry" />
        </mxCell>
        <mxCell id="wWXcaKB92qRnpz49XqFc-12" value="" style="endArrow=classic;html=1;rounded=0;" edge="1" parent="1" target="wWXcaKB92qRnpz49XqFc-13">
          <mxGeometry width="50" height="50" relative="1" as="geometry">
            <mxPoint x="494.41" y="470" as="sourcePoint" />
            <mxPoint x="494.41" y="520" as="targetPoint" />
          </mxGeometry>
        </mxCell>
        <mxCell id="wWXcaKB92qRnpz49XqFc-13" value="Tiền xử lý data" style="rounded=0;whiteSpace=wrap;html=1;" vertex="1" parent="1">
          <mxGeometry x="440" y="510" width="110" height="40" as="geometry" />
        </mxCell>
        <mxCell id="wWXcaKB92qRnpz49XqFc-15" value="Phân tích Sentiment&amp;nbsp;&lt;div&gt;(TickerNews)&lt;/div&gt;" style="rounded=0;whiteSpace=wrap;html=1;" vertex="1" parent="1">
          <mxGeometry x="340" y="600" width="120" height="60" as="geometry" />
        </mxCell>
        <mxCell id="wWXcaKB92qRnpz49XqFc-16" value="" style="endArrow=none;html=1;rounded=0;" edge="1" parent="1">
          <mxGeometry width="50" height="50" relative="1" as="geometry">
            <mxPoint x="494.40999999999997" y="580" as="sourcePoint" />
            <mxPoint x="494.40999999999997" y="550" as="targetPoint" />
          </mxGeometry>
        </mxCell>
        <mxCell id="wWXcaKB92qRnpz49XqFc-17" value="" style="endArrow=none;html=1;rounded=0;" edge="1" parent="1">
          <mxGeometry width="50" height="50" relative="1" as="geometry">
            <mxPoint x="400" y="580" as="sourcePoint" />
            <mxPoint x="500" y="580" as="targetPoint" />
          </mxGeometry>
        </mxCell>
        <mxCell id="wWXcaKB92qRnpz49XqFc-18" value="" style="endArrow=classic;html=1;rounded=0;" edge="1" parent="1">
          <mxGeometry width="50" height="50" relative="1" as="geometry">
            <mxPoint x="399.41" y="580" as="sourcePoint" />
            <mxPoint x="399.41" y="600" as="targetPoint" />
          </mxGeometry>
        </mxCell>
        <mxCell id="wWXcaKB92qRnpz49XqFc-19" value="" style="endArrow=none;html=1;rounded=0;" edge="1" parent="1">
          <mxGeometry width="50" height="50" relative="1" as="geometry">
            <mxPoint x="500" y="580" as="sourcePoint" />
            <mxPoint x="590" y="580" as="targetPoint" />
          </mxGeometry>
        </mxCell>
        <mxCell id="wWXcaKB92qRnpz49XqFc-20" value="" style="endArrow=classic;html=1;rounded=0;" edge="1" parent="1">
          <mxGeometry width="50" height="50" relative="1" as="geometry">
            <mxPoint x="590" y="580" as="sourcePoint" />
            <mxPoint x="590" y="600" as="targetPoint" />
          </mxGeometry>
        </mxCell>
        <mxCell id="wWXcaKB92qRnpz49XqFc-21" value="Lọc tin tức, cập nhật Risks( MarketNews)" style="rounded=0;whiteSpace=wrap;html=1;" vertex="1" parent="1">
          <mxGeometry x="540" y="600" width="120" height="60" as="geometry" />
        </mxCell>
        <mxCell id="wWXcaKB92qRnpz49XqFc-25" value="" style="endArrow=none;html=1;rounded=0;" edge="1" parent="1">
          <mxGeometry width="50" height="50" relative="1" as="geometry">
            <mxPoint x="400" y="720" as="sourcePoint" />
            <mxPoint x="400" y="660" as="targetPoint" />
          </mxGeometry>
        </mxCell>
        <mxCell id="wWXcaKB92qRnpz49XqFc-26" value="" style="endArrow=none;html=1;rounded=0;" edge="1" parent="1">
          <mxGeometry width="50" height="50" relative="1" as="geometry">
            <mxPoint x="400" y="720" as="sourcePoint" />
            <mxPoint x="590" y="720" as="targetPoint" />
          </mxGeometry>
        </mxCell>
        <mxCell id="wWXcaKB92qRnpz49XqFc-27" value="" style="endArrow=none;html=1;rounded=0;" edge="1" parent="1">
          <mxGeometry width="50" height="50" relative="1" as="geometry">
            <mxPoint x="590" y="720" as="sourcePoint" />
            <mxPoint x="590" y="660" as="targetPoint" />
          </mxGeometry>
        </mxCell>
        <mxCell id="wWXcaKB92qRnpz49XqFc-28" value="" style="endArrow=classic;html=1;rounded=0;" edge="1" parent="1">
          <mxGeometry width="50" height="50" relative="1" as="geometry">
            <mxPoint x="490" y="720" as="sourcePoint" />
            <mxPoint x="490" y="760" as="targetPoint" />
          </mxGeometry>
        </mxCell>
        <mxCell id="wWXcaKB92qRnpz49XqFc-29" value="Response cho users" style="rounded=1;whiteSpace=wrap;html=1;" vertex="1" parent="1">
          <mxGeometry x="450" y="760" width="90" height="40" as="geometry" />
        </mxCell>
        <mxCell id="wWXcaKB92qRnpz49XqFc-30" value="Yes&lt;div&gt;&lt;br&gt;&lt;/div&gt;" style="text;html=1;align=center;verticalAlign=middle;resizable=0;points=[];autosize=1;strokeColor=none;fillColor=none;" vertex="1" parent="1">
          <mxGeometry x="490" y="470" width="40" height="40" as="geometry" />
        </mxCell>
      </root>
    </mxGraphModel>
  </diagram>
</mxfile>
